<?xml version="1.0" standalone="no"?><!DOCTYPE svg PUBLIC "-//W3C//DTD SVG 1.1//EN" "http://www.w3.org/Graphics/SVG/1.1/DTD/svg11.dtd"><svg t="1749546033859" class="icon" viewBox="0 0 1024 1024" version="1.1" xmlns="http://www.w3.org/2000/svg" p-id="5305" width="128" height="128" xmlns:xlink="http://www.w3.org/1999/xlink"><path d="M374 512.5c1.2 0 2.3-0.1 3.5-0.1-8.9-0.1-17.7-0.4-26.5-0.9 7.6 0.6 15.3 1 23 1z" fill="#5D4037" p-id="5306"></path><path d="M374 511.5c-7.8 0-15.4 0.4-23.1 1 8.8-0.4 17.6-0.7 26.5-0.9-1.1 0-2.2-0.1-3.4-0.1z" fill="#5D4037" p-id="5307"></path><path d="M748 512c0-257.1-165.6-465.8-370.6-468.1-8.9 0.1-17.7 0.4-26.5 0.9C155.1 59.7 0 263.1 0 512s155.1 452.3 351 467.3c8.8 0.4 17.6 0.7 26.5 0.9C582.4 977.8 748 769.1 748 512z" fill="#FFF59D" p-id="5308"></path><path d="M390.8 187.5v283.1l176.1-176.1c-44-61.1-106.3-101.3-176.1-107zM585.7 699.8c27.6-48.7 44.8-107.3 47.4-170.7H415l170.7 170.7zM356.5 836.5V553.4l-176 176c43.9 61.2 106.2 101.4 176 107.1zM566.8 729.4l-176-176v283.1c69.8-5.7 132.1-45.9 176-107.1zM114.2 529.1c2.6 63.4 19.8 122 47.4 170.7l170.7-170.7H114.2zM633.1 494.9c-2.6-63.4-19.8-122-47.4-170.7L415 494.9h218.1zM161.6 324.2c-27.6 48.7-44.8 107.3-47.4 170.7h218.1L161.6 324.2zM356.5 187.5c-69.8 5.7-132.1 45.8-176.1 107.1l176.1 176.1V187.5z" fill="#FFD600" p-id="5309"></path><path d="M1024 512c0-36.3-24.2-66.9-57.4-76.7C920.8 213.2 679.3 43.8 388.3 43.8c-3.6 0-7.2 0.1-10.8 0.1C582.4 46.2 748 254.9 748 512S582.4 977.8 377.5 980.1c3.6 0.1 7.2 0.1 10.8 0.1 291 0 532.5-169.4 578.3-391.6 33.2-9.7 57.4-40.3 57.4-76.6z" fill="#FFD600" p-id="5310"></path><path d="M843.9 594.3m-28.4 0a28.4 28.4 0 1 0 56.8 0 28.4 28.4 0 1 0-56.8 0Z" fill="#FFA000" p-id="5311"></path><path d="M787 679.6m-28.4 0a28.4 28.4 0 1 0 56.8 0 28.4 28.4 0 1 0-56.8 0Z" fill="#FFA000" p-id="5312"></path><path d="M872.3 679.6m-28.4 0a28.4 28.4 0 1 0 56.8 0 28.4 28.4 0 1 0-56.8 0Z" fill="#FFA000" p-id="5313"></path></svg>